<svg width="424" height="424" viewBox="0 0 424 424" fill="none" xmlns="http://www.w3.org/2000/svg">
<path d="M289.258 79.1255C288.216 81.2884 286.918 82.9214 285.362 84.0245C283.806 85.1277 282.129 85.7275 280.333 85.8241C278.543 85.9237 276.768 85.5498 275.008 84.7024C273.242 83.8519 271.841 82.6926 270.806 81.2245C269.771 79.7564 269.198 78.0734 269.087 76.1754C268.986 74.2742 269.455 72.2453 270.493 70.0889C271.535 67.926 272.83 66.2915 274.38 65.1853C275.936 64.0821 277.609 63.4807 279.399 63.3811C281.189 63.2814 282.967 63.6569 284.733 64.5074C286.493 65.3548 287.892 66.5094 288.93 67.9711C289.975 69.4359 290.551 71.1204 290.659 73.0248C290.766 74.9291 290.3 76.9627 289.258 79.1255ZM284.401 76.7866C285.018 75.5069 285.356 74.3376 285.416 73.2789C285.483 72.2233 285.287 71.305 284.828 70.524C284.374 69.7461 283.674 69.1292 282.727 68.6731C281.787 68.2201 280.868 68.0574 279.971 68.1851C279.074 68.3128 278.23 68.7303 277.44 69.4377C276.657 70.1482 275.957 71.1434 275.34 72.4232C274.724 73.7029 274.382 74.8706 274.315 75.9263C274.255 76.985 274.454 77.9048 274.914 78.6858C275.373 79.4667 276.074 80.0837 277.014 80.5367C277.961 80.9928 278.88 81.1554 279.771 81.0247C280.668 80.897 281.508 80.4779 282.292 79.7674C283.082 79.06 283.785 78.0664 284.401 76.7866Z" fill="#00DC82"/>
<path d="M294.855 95.8856L308.459 78.8274L315.505 84.4468C316.782 85.4653 317.685 86.5942 318.214 87.8334C318.753 89.0716 318.92 90.3363 318.717 91.6278C318.518 92.9136 317.952 94.1424 317.018 95.314C316.079 96.4912 314.999 97.3153 313.779 97.7864C312.568 98.2563 311.295 98.3542 309.961 98.0801C308.626 97.806 307.306 97.1486 306.001 96.108L301.653 92.6407L304.244 89.3923L307.825 92.2485C308.447 92.7445 309.053 93.0502 309.642 93.1658C310.237 93.2858 310.797 93.2378 311.324 93.0218C311.855 92.8002 312.328 92.4285 312.745 91.9065C313.165 91.379 313.42 90.8373 313.509 90.2815C313.603 89.7201 313.522 89.1656 313.269 88.6181C313.015 88.0705 312.58 87.551 311.964 87.0594L309.931 85.4387L298.978 99.1735L294.855 95.8856Z" fill="#00DC82"/>
<path d="M319.036 117.574L336.094 103.971L345.579 115.865L342.231 118.535L336.034 110.764L332.535 113.554L338.248 120.717L334.891 123.394L329.179 116.231L325.672 119.027L331.869 126.798L328.521 129.468L319.036 117.574Z" fill="#00DC82"/>
<path d="M364.898 150.386L345.241 159.853L343.299 155.821L350.877 142.535L350.817 142.41L339.472 147.874L337.184 143.123L356.841 133.656L358.81 137.745L351.21 150.936L351.289 151.099L362.615 145.644L364.898 150.386Z" fill="#00DC82"/>
<path d="M372.404 203.157H376.686V221.598H372.404V214.982H354.868V209.783H372.404V203.157Z" fill="#00DC82"/>
<path d="M359.379 257.687C357.039 257.152 355.158 256.25 353.736 254.978C352.314 253.706 351.357 252.206 350.863 250.476C350.367 248.753 350.337 246.939 350.771 245.035C351.208 243.124 352.026 241.5 353.227 240.164C354.428 238.829 355.941 237.895 357.767 237.365C359.598 236.843 361.68 236.849 364.014 237.381C366.354 237.915 368.236 238.815 369.659 240.08C371.081 241.351 372.04 242.848 372.535 244.571C373.031 246.294 373.06 248.112 372.624 250.023C372.19 251.927 371.375 253.548 370.181 254.885C368.986 256.229 367.471 257.166 365.639 257.695C363.806 258.223 361.72 258.221 359.379 257.687ZM360.579 252.431C361.964 252.747 363.179 252.817 364.225 252.64C365.269 252.471 366.12 252.075 366.779 251.453C367.437 250.838 367.883 250.019 368.116 248.994C368.349 247.976 368.303 247.044 367.979 246.198C367.655 245.352 367.06 244.622 366.194 244.009C365.327 243.403 364.202 242.942 362.817 242.626C361.432 242.31 360.217 242.237 359.173 242.407C358.128 242.583 357.275 242.983 356.616 243.604C355.957 244.226 355.511 245.046 355.279 246.064C355.045 247.088 355.091 248.021 355.417 248.86C355.741 249.706 356.336 250.432 357.203 251.038C358.069 251.651 359.194 252.115 360.579 252.431Z" fill="#00DC82"/>
<path d="M328.784 294.944L349.801 303.583L346.167 308.139L332.937 301.799L332.824 301.941L341.657 313.795L338.695 317.51L325.147 311.516L325.034 311.658L334.178 323.174L330.551 327.721L317.445 309.162L320.614 305.189L333.409 310.365L333.516 310.232L325.622 298.909L328.784 294.944Z" fill="#00DC82"/>
<path d="M299.052 339.462C297.555 337.585 296.647 335.707 296.328 333.826C296.01 331.946 296.197 330.175 296.889 328.514C297.576 326.858 298.683 325.422 300.21 324.204C301.743 322.982 303.395 322.223 305.167 321.927C306.938 321.631 308.703 321.845 310.461 322.569C312.218 323.303 313.843 324.605 315.335 326.477C316.832 328.353 317.742 330.23 318.067 332.106C318.386 333.987 318.201 335.755 317.515 337.411C316.828 339.067 315.718 340.506 314.185 341.728C312.658 342.946 311.011 343.706 309.244 344.007C307.471 344.312 305.703 344.101 303.941 343.371C302.178 342.642 300.548 341.339 299.052 339.462ZM303.266 336.101C304.152 337.212 305.059 338.024 305.986 338.538C306.908 339.056 307.821 339.278 308.724 339.203C309.621 339.132 310.481 338.769 311.303 338.113C312.119 337.463 312.664 336.705 312.938 335.842C313.212 334.978 313.202 334.037 312.908 333.018C312.608 332.004 312.015 330.941 311.129 329.831C310.243 328.72 309.34 327.906 308.417 327.388C307.49 326.874 306.575 326.654 305.672 326.729C304.769 326.805 303.909 327.168 303.093 327.819C302.271 328.474 301.726 329.231 301.457 330.09C301.183 330.954 301.196 331.893 301.496 332.907C301.791 333.926 302.381 334.991 303.266 336.101Z" fill="#00DC82"/>
<path d="M281.655 337.169L291.121 356.827L283.001 360.737C281.529 361.446 280.131 361.792 278.807 361.775C277.479 361.768 276.287 361.412 275.23 360.707C274.176 360.009 273.326 358.988 272.678 357.644C272.022 356.281 271.762 354.979 271.898 353.739C272.037 352.506 272.533 351.376 273.387 350.35C274.244 349.33 275.421 348.46 276.919 347.739L282.054 345.266L283.856 349.009L279.604 351.057C278.888 351.402 278.334 351.783 277.943 352.2C277.55 352.626 277.32 353.091 277.256 353.595C277.194 354.105 277.31 354.665 277.602 355.273C277.895 355.88 278.262 356.323 278.702 356.599C279.146 356.882 279.659 357.006 280.241 356.97C280.826 356.941 281.473 356.755 282.184 356.413L284.526 355.285L276.903 339.457L281.655 337.169ZM274.914 351.483L265.692 344.856L270.876 342.36L280.001 349.033L274.914 351.483Z" fill="#00DC82"/>
<path d="M252.733 349.325L257.588 370.596L252.447 371.77L250.394 362.775L250.114 362.839L245.135 373.438L239.08 374.821L244.453 363.606L234.09 353.58L240.238 352.177L247.444 359.329L248.908 356.263L247.592 350.498L252.733 349.325Z" fill="#00DC82"/>
<path d="M135.471 345.616C136.513 343.453 137.812 341.82 139.368 340.717C140.924 339.614 142.6 339.014 144.397 338.917C146.187 338.818 147.962 339.191 149.721 340.039C151.488 340.889 152.888 342.049 153.923 343.517C154.958 344.985 155.531 346.668 155.642 348.566C155.743 350.467 155.275 352.496 154.236 354.652C153.195 356.815 151.899 358.45 150.35 359.556C148.794 360.659 147.12 361.261 145.33 361.36C143.54 361.46 141.762 361.084 139.996 360.234C138.236 359.386 136.837 358.232 135.799 356.77C134.755 355.305 134.178 353.621 134.071 351.716C133.963 349.812 134.43 347.779 135.471 345.616ZM140.328 347.955C139.712 349.234 139.374 350.404 139.313 351.462C139.246 352.518 139.442 353.436 139.902 354.217C140.355 354.995 141.055 355.612 142.002 356.068C142.943 356.521 143.862 356.684 144.759 356.556C145.656 356.428 146.499 356.011 147.289 355.303C148.073 354.593 148.773 353.598 149.389 352.318C150.005 351.038 150.347 349.871 150.414 348.815C150.475 347.756 150.275 346.836 149.816 346.055C149.356 345.275 148.656 344.658 147.715 344.205C146.768 343.748 145.849 343.586 144.959 343.717C144.062 343.844 143.221 344.263 142.438 344.974C141.648 345.681 140.945 346.675 140.328 347.955Z" fill="#00DC82"/>
<path d="M129.874 328.856L116.271 345.914L109.224 340.294C107.947 339.276 107.044 338.147 106.516 336.908C105.977 335.67 105.809 334.405 106.012 333.113C106.211 331.828 106.778 330.599 107.712 329.427C108.651 328.25 109.73 327.426 110.951 326.955C112.161 326.485 113.434 326.387 114.769 326.661C116.104 326.935 117.423 327.593 118.728 328.633L123.076 332.1L120.486 335.349L116.904 332.493C116.282 331.997 115.677 331.691 115.088 331.575C114.493 331.455 113.932 331.503 113.406 331.719C112.875 331.941 112.401 332.313 111.985 332.835C111.564 333.362 111.309 333.904 111.22 334.46C111.127 335.021 111.207 335.576 111.461 336.123C111.715 336.671 112.15 337.19 112.766 337.682L114.798 339.302L125.751 325.568L129.874 328.856Z" fill="#00DC82"/>
<path d="M105.694 307.167L88.6356 320.77L79.1504 308.876L82.4987 306.206L88.6959 313.977L92.1942 311.188L86.4818 304.024L89.8385 301.348L95.5509 308.511L99.0574 305.714L92.8602 297.943L96.2085 295.273L105.694 307.167Z" fill="#00DC82"/>
<path d="M59.8314 274.355L79.4889 264.889L81.4303 268.92L73.8522 282.206L73.9123 282.331L85.2576 276.867L87.5457 281.619L67.8882 291.085L65.9191 286.996L73.5196 273.806L73.441 273.643L62.1149 279.097L59.8314 274.355Z" fill="#00DC82"/>
<path d="M52.3258 221.584H48.0431V203.143H52.3258V209.759H69.8613V214.958H52.3258V221.584Z" fill="#00DC82"/>
<path d="M65.3502 167.055C67.6906 167.589 69.5716 168.492 70.9934 169.763C72.4151 171.035 73.3729 172.536 73.8668 174.266C74.3623 175.989 74.3927 177.802 73.9581 179.706C73.5219 181.617 72.7034 183.241 71.5024 184.577C70.3015 185.913 68.7881 186.846 66.9624 187.376C65.1314 187.898 63.0491 187.892 60.7157 187.36C58.3753 186.826 56.4934 185.926 55.0701 184.662C53.6484 183.39 52.6898 181.893 52.1943 180.17C51.6988 178.447 51.6692 176.63 52.1053 174.719C52.54 172.814 53.3543 171.194 54.5483 169.856C55.7439 168.512 57.258 167.575 59.0907 167.047C60.9233 166.518 63.0098 166.52 65.3502 167.055ZM64.1507 172.31C62.7658 171.994 61.5506 171.924 60.505 172.101C59.4609 172.271 58.6093 172.666 57.9502 173.288C57.2926 173.903 56.8469 174.723 56.613 175.747C56.3807 176.765 56.4266 177.697 56.7507 178.543C57.0748 179.39 57.6695 180.119 58.535 180.732C59.402 181.338 60.528 181.799 61.9128 182.115C63.2977 182.431 64.5121 182.504 65.5561 182.334C66.6018 182.158 67.4541 181.759 68.1133 181.137C68.7724 180.515 69.2182 179.695 69.4505 178.678C69.6844 177.653 69.6385 176.721 69.3128 175.881C68.9887 175.035 68.3931 174.309 67.5261 173.703C66.6607 173.091 65.5355 172.626 64.1507 172.31Z" fill="#00DC82"/>
<path d="M95.9458 129.797L74.9289 121.158L78.5622 116.602L91.7924 122.942L91.9053 122.8L83.0723 110.946L86.0348 107.232L99.5823 113.225L99.6952 113.084L90.5515 101.568L94.1782 97.0199L107.284 115.579L104.116 119.552L91.32 114.376L91.2137 114.509L99.1076 125.832L95.9458 129.797Z" fill="#00DC82"/>
<path d="M125.678 85.279C127.175 87.1558 128.082 89.0345 128.401 90.9151C128.72 92.7957 128.533 94.5662 127.84 96.2267C127.154 97.8828 126.047 99.3197 124.52 100.537C122.987 101.76 121.335 102.519 119.563 102.814C117.791 103.11 116.026 102.896 114.268 102.172C112.511 101.438 110.887 100.136 109.394 98.2647C107.898 96.3878 106.987 94.5114 106.663 92.6352C106.344 90.7546 106.528 88.9863 107.215 87.3303C107.902 85.6742 109.012 84.2351 110.544 83.0129C112.071 81.7951 113.718 81.0357 115.486 80.7345C117.259 80.4288 119.026 80.6406 120.789 81.3699C122.551 82.0991 124.181 83.4022 125.678 85.279ZM121.463 88.64C120.578 87.5294 119.671 86.7172 118.743 86.2034C117.821 85.685 116.909 85.4635 116.006 85.5386C115.108 85.6093 114.249 85.9724 113.427 86.6277C112.611 87.2787 112.065 88.036 111.791 88.8996C111.517 89.7632 111.527 90.7044 111.822 91.7231C112.122 92.7374 112.715 93.7998 113.6 94.9103C114.486 96.0209 115.39 96.8353 116.312 97.3536C117.24 97.8675 118.155 98.0869 119.058 98.0117C119.961 97.9366 120.821 97.5735 121.637 96.9226C122.459 96.2672 123.004 95.5099 123.272 94.6507C123.547 93.7871 123.534 92.8481 123.234 91.8339C122.939 90.8152 122.349 89.7506 121.463 88.64Z" fill="#00DC82"/>
<path d="M143.075 87.5722L133.608 67.9147L141.729 64.0042C143.2 63.2954 144.598 62.9493 145.923 62.9658C147.251 62.9728 148.443 63.3288 149.5 64.0338C150.553 64.7324 151.404 65.7536 152.051 67.0974C152.707 68.4603 152.968 69.7618 152.832 71.0019C152.693 72.2355 152.196 73.3653 151.342 74.3914C150.485 75.4111 149.308 76.2814 147.811 77.0025L142.676 79.4755L140.873 75.7321L145.125 73.6844C145.842 73.3393 146.395 72.9584 146.786 72.5417C147.18 72.1155 147.409 71.6504 147.474 71.1463C147.535 70.6357 147.42 70.0765 147.127 69.4686C146.834 68.8607 146.468 68.4185 146.027 68.142C145.583 67.859 145.071 67.7354 144.489 67.7713C143.904 67.8007 143.256 67.9865 142.546 68.3285L140.204 69.4564L147.826 85.2841L143.075 87.5722ZM149.815 73.2585L159.037 79.8852L153.854 82.3813L144.728 75.7083L149.815 73.2585Z" fill="#00DC82"/>
<path d="M171.996 75.4163L167.141 54.1451L172.283 52.9717L174.336 61.9662L174.616 61.9022L179.595 51.3028L185.65 49.9207L180.276 61.1348L190.64 71.161L184.491 72.5644L177.286 65.4125L175.822 68.4784L177.138 74.2428L171.996 75.4163Z" fill="#00DC82"/>
<circle cx="231.25" cy="62.2689" r="3.34912" fill="white"/>
<circle cx="194.365" cy="362.472" r="3.34912" fill="white"/>
</svg>
